# xmcd
# 
# Track frame offsets:
#     150
#     31812
#     52662
#     75657
#     96615
#     129452
#     162410
#     176046
#     200849
#     218651
#     258259
#     287598
# 
# Disc length: 4294
# 
# Revision: 5
# Processed by: cddbd v1.5.2PL0 Copyright (c) Steve Scherf et al.
# Submitted via: fre:ac v1.0.17
# 
DISCID=a610c40c
DTITLE=Elton John - Captain Fantastic and the Brown Dirt Cowboy Deluxe Edition Disc 2
DYEAR=1975
DGENRE=Rock
TTITLE0=Captain Fantastic and the Brown Dirt Cowboy (Live)
TTITLE1=Tower of Babel (Live)
TTITLE2=Bitter Fingers (Live)
TTITLE3=Tell Me When the Whistle Blows (Live)
TTITLE4=Someone Saved My Life Tonight (Live)
TTITLE5=(Gotta Get A) Meal Ticket (Live)
TTITLE6=Better Off Dead (Live)
TTITLE7=Writing (Live)
TTITLE8=We All Fall In Love Sometimes (Live)
TTITLE9=Curtains (Live)
TTITLE10=Pinball Wizard (Live)
TTITLE11=Saturday Night's Alright for Fighting (Live)
EXTD=
EXTT0=
EXTT1=
EXTT2=
EXTT3=
EXTT4=
EXTT5=
EXTT6=
EXTT7=
EXTT8=
EXTT9=
EXTT10=
EXTT11=
PLAYORDER=
